HIERARCHY
ROOT Hips
{
	OFFSET 0.000000 0.000000 0.000000
	CHANNELS 6 Xposition Yposition Zposition Zrotation Yrotation Xrotation
	JOINT LHipJoint
	{
		OFFSET 0.000000 0.000000 0.000000
		CHANNELS 3 Zrotation Yrotation Xrotation
		JOINT LeftUpLeg
		{
			OFFSET 1.363060 -1.794630 0.839290
			CHANNELS 3 Zrotation Yrotation Xrotation
			JOINT LeftLeg
			{
				OFFSET 2.448110 -6.726130 0.000000
				CHANNELS 3 Zrotation Yrotation Xrotation
				JOINT LeftFoot
				{
					OFFSET 2.562200 -7.039590 0.000000
					CHANNELS 3 Zrotation Yrotation Xrotation
					JOINT LeftToeBase
					{
						OFFSET 0.157640 -0.433110 2.322550
						CHANNELS 3 Zrotation Yrotation Xrotation
						End Site
						{
							OFFSET 0.000000 0.000000 0.000000
						}
					}
				}
			}
		}
	}
	JOINT RHipJoint
	{
		OFFSET 0.000000 0.000000 0.000000
		CHANNELS 3 Zrotation Yrotation Xrotation
		JOINT RightUpLeg
		{
			OFFSET -1.305520 -1.794630 0.839290
			CHANNELS 3 Zrotation Yrotation Xrotation
			JOINT RightLeg
			{
				OFFSET -2.542530 -6.985550 0.000000
				CHANNELS 3 Zrotation Yrotation Xrotation
				JOINT RightFoot
				{
					OFFSET -2.568260 -7.056230 0.000000
					CHANNELS 3 Zrotation Yrotation Xrotation
					JOINT RightToeBase
					{
						OFFSET -0.164730 -0.452590 2.363150
						CHANNELS 3 Zrotation Yrotation Xrotation
						End Site
						{
							OFFSET 0.000000 0.000000 0.000000
						}
					}
				}
			}
		}
	}
	JOINT LowerBack
	{
		OFFSET 0.000000 0.000000 0.000000
		CHANNELS 3 Zrotation Yrotation Xrotation
		JOINT Spine
		{
			OFFSET 0.028270 2.035590 -0.193380
			CHANNELS 3 Zrotation Yrotation Xrotation
			JOINT Spine1
			{
				OFFSET 0.056720 2.048850 -0.042750
				CHANNELS 3 Zrotation Yrotation Xrotation
				JOINT Neck
				{
					OFFSET 0.000000 0.000000 0.000000
					CHANNELS 3 Zrotation Yrotation Xrotation
					JOINT Neck1
					{
						OFFSET -0.054170 1.746240 0.172020
						CHANNELS 3 Zrotation Yrotation Xrotation
						JOINT Head
						{
							OFFSET 0.104070 1.761360 -0.123970
							CHANNELS 3 Zrotation Yrotation Xrotation
							End Site
							{
								OFFSET 0.000000 0.000000 0.000000
							}
						}
					}
				}
				JOINT LeftShoulder
				{
					OFFSET 0.000000 0.000000 0.000000
					CHANNELS 3 Zrotation Yrotation Xrotation
					JOINT LeftArm
					{
						OFFSET 3.362410 1.200890 -0.311210
						CHANNELS 3 Zrotation Yrotation Xrotation
						JOINT LeftForeArm
						{
							OFFSET 4.983000 -0.000000 -0.000000
							CHANNELS 3 Zrotation Yrotation Xrotation
							JOINT LeftHand
							{
								OFFSET 3.483560 -0.000000 -0.000000
								CHANNELS 3 Zrotation Yrotation Xrotation
								JOINT LeftFingerBase
								{
									OFFSET 0.000000 0.000000 0.000000
									CHANNELS 3 Zrotation Yrotation Xrotation
									JOINT LeftHandIndex1
									{
										OFFSET 0.715260 -0.000000 -0.000000
										CHANNELS 3 Zrotation Yrotation Xrotation
										End Site
										{
											OFFSET 0.000000 0.000000 0.000000
										}
									}
								}
								JOINT LThumb
								{
									OFFSET 0.000000 0.000000 0.000000
									CHANNELS 3 Zrotation Yrotation Xrotation
									End Site
									{
										OFFSET 0.000000 0.000000 0.000000
									}
								}
							}
						}
					}
				}
				JOINT RightShoulder
				{
					OFFSET 0.000000 0.000000 0.000000
					CHANNELS 3 Zrotation Yrotation Xrotation
					JOINT RightArm
					{
						OFFSET -3.136600 1.374050 -0.404650
						CHANNELS 3 Zrotation Yrotation Xrotation
						JOINT RightForeArm
						{
							OFFSET -5.241900 -0.000000 -0.000000
							CHANNELS 3 Zrotation Yrotation Xrotation
							JOINT RightHand
							{
								OFFSET -3.444170 -0.000000 -0.000000
								CHANNELS 3 Zrotation Yrotation Xrotation
								JOINT RightFingerBase
								{
									OFFSET 0.000000 0.000000 0.000000
									CHANNELS 3 Zrotation Yrotation Xrotation
									JOINT RightHandIndex1
									{
										OFFSET -0.622530 -0.000000 -0.000000
										CHANNELS 3 Zrotation Yrotation Xrotation
										End Site
										{
											OFFSET 0.000000 0.000000 0.000000
										}
									}
								}
								JOINT RThumb
								{
									OFFSET 0.000000 0.000000 0.000000
									CHANNELS 3 Zrotation Yrotation Xrotation
									End Site
									{
										OFFSET 0.000000 0.000000 0.000000
									}
								}
							}
						}
					}
				}
			}
		}
	}
}
MOTION
Frames: 13
Frame Time: 0.008333
2.958586 8.435455 -9.390513 -2.748769 6.594309 3.029094 0.224364 0.367199 0.190835 -5.589531 -2.286491 -25.367815 0.289797 6.803780 18.924082 -1.098867 -3.310462 3.658093 0.151320 0.530345 -2.906890 0.112703 -1.008724 1.590633 14.924111 3.777327 -0.140192 -0.759233 -4.892986 14.006435 -0.072746 1.643972 -2.323279 -0.068626 0.224737 1.130416 1.051100 1.509070 0.952398 1.172886 2.072862 -0.736573 0.202407 1.287393 -0.963813 -2.237901 -1.192281 -5.277688 2.385658 -1.481127 6.898472 0.854246 -0.922609 4.023809 -0.484466 0.416190 -0.281277 -43.877930 6.636796 2.767997 4.219769 -8.867812 -0.998725 -0.337508 -0.233460 6.137188 8.204145 2.120312 1.059844 -3.625118 0.000000 0.000000 -6.169838 16.305216 -1.021614 0.538703 -0.158696 -0.371118 37.732574 2.110899 12.833651 -12.221634 15.967411 -4.999466 0.290451 -0.122505 -4.563131 -14.656910 -2.093251 -3.053993 3.477162 0.000000 0.000000 -1.111165 -18.327862 -5.363490
2.996976 8.502366 -9.482677 -2.777828 6.645419 3.048922 0.221259 0.367732 0.189452 -5.640991 -2.308398 -25.587000 0.289783 6.854643 19.065216 -1.109719 -3.343011 3.684610 0.151916 0.531216 -2.943026 0.108196 -1.019455 1.601180 15.040192 3.801438 -0.147234 -0.767163 -4.937424 14.101896 -0.075241 1.645345 -2.384285 -0.071066 0.221487 1.119274 1.056002 1.520604 0.954832 1.181141 2.088467 -0.747106 0.200992 1.296927 -0.979686 -2.260558 -1.204840 -5.324636 2.402150 -1.496763 6.950435 0.857619 -0.932678 4.053469 -0.492993 0.415794 -0.284560 -44.264599 6.686752 2.782579 4.251132 -8.948538 -1.008783 -0.340912 -0.236798 6.165277 8.263750 2.123241 1.061508 -3.656832 0.000000 0.000000 -6.254556 16.400772 -1.067715 0.537837 -0.163979 -0.375846 38.024288 2.121890 12.928958 -12.341401 16.088696 -5.053082 0.291764 -0.124734 -4.611900 -14.858513 -2.145976 -3.140324 3.504542 0.000000 0.000000 -1.198217 -18.524862 -5.488463
3.035415 8.569386 -9.574432 -2.806799 6.696663 3.068844 0.218236 0.368303 0.188107 -5.692320 -2.330204 -25.805973 0.289813 6.905601 19.206608 -1.120543 -3.375443 3.711287 0.152539 0.532178 -2.978843 0.103812 -1.030141 1.611808 15.156525 3.825676 -0.154065 -0.775049 -4.981792 14.197568 -0.077686 1.646955 -2.445002 -0.073468 0.218334 1.108421 1.060968 1.532176 0.957383 1.189432 2.104124 -0.757552 0.199631 1.306491 -0.995439 -2.283112 -1.217324 -5.371453 2.418702 -1.512293 7.002547 0.861075 -0.942697 4.083239 -0.501394 0.415492 -0.287820 -44.650696 6.736909 2.797676 4.282637 -9.029067 -1.018792 -0.344299 -0.240102 6.193821 8.323606 2.126533 1.063341 -3.688510 0.000000 0.000000 -6.338514 16.497257 -1.112966 0.537094 -0.169173 -0.380542 38.316486 2.133075 13.024552 -12.460841 16.210279 -5.106499 0.293103 -0.126934 -4.660421 -15.058381 -2.197927 -3.225362 3.531956 0.000000 0.000000 -1.283572 -18.720894 -5.611688
3.073853 8.636405 -9.666188 -2.835771 6.747905 3.088763 0.215211 0.368873 0.186760 -5.743651 -2.352014 -26.024954 0.289842 6.956556 19.347992 -1.131368 -3.407878 3.737962 0.153162 0.533138 -3.014666 0.099426 -1.040828 1.622435 15.272853 3.849911 -0.160899 -0.782937 -5.026163 14.293235 -0.080133 1.648558 -2.505727 -0.075872 0.215178 1.097558 1.065932 1.543746 0.959929 1.197722 2.119778 -0.768002 0.198267 1.316054 -1.011195 -2.305669 -1.229811 -5.418273 2.435253 -1.527826 7.054656 0.864530 -0.952717 4.113006 -0.509798 0.415188 -0.291080 -45.036804 6.787064 2.812765 4.314139 -9.109599 -1.028802 -0.347687 -0.243406 6.222360 8.383460 2.129821 1.065173 -3.720188 0.000000 0.000000 -6.422480 16.593733 -1.158226 0.536350 -0.174368 -0.385238 38.608681 2.144257 13.120143 -12.580284 16.331861 -5.159917 0.294442 -0.129135 -4.708943 -15.258262 -2.249882 -3.310406 3.559371 0.000000 0.000000 -1.368931 -18.916925 -5.734915
3.112136 8.703244 -9.758637 -2.864921 6.798837 3.108341 0.211890 0.369292 0.185281 -5.795405 -2.374148 -26.244528 0.289750 7.007220 19.488592 -1.142281 -3.440661 3.764188 0.153709 0.533889 -3.051129 0.094775 -1.051612 1.632884 15.388614 3.873855 -0.168220 -0.790922 -5.070699 14.388398 -0.082699 1.649570 -2.567245 -0.078375 0.211763 1.085896 1.070688 1.555206 0.962131 1.205904 2.135286 -0.778711 0.196741 1.325524 -1.027313 -2.328536 -1.242520 -5.465505 2.451630 -1.543662 7.106329 0.867733 -0.962884 4.142461 -0.518554 0.414601 -0.294411 -45.424583 6.836630 2.826214 4.345200 -9.190728 -1.038960 -0.351125 -0.246823 6.249442 8.442512 2.131871 1.066431 -3.751984 0.000000 0.000000 -6.509006 16.687073 -1.206352 0.535180 -0.179877 -0.390049 38.899170 2.154742 13.214700 -12.700875 16.452393 -5.214054 0.295690 -0.131433 -4.758343 -15.464277 -2.304552 -3.400054 3.586662 0.000000 0.000000 -1.460292 -19.116385 -5.864289
3.150470 8.770165 -9.850774 -2.893959 6.849987 3.128163 0.208779 0.369807 0.183893 -5.846903 -2.396085 -26.463757 0.289735 7.058046 19.629623 -1.153158 -3.473347 3.790596 0.154287 0.534686 -3.087417 0.090218 -1.062361 1.643401 15.504605 3.897913 -0.175350 -0.798867 -5.115161 14.483770 -0.085215 1.650813 -2.628444 -0.080840 0.208449 1.074622 1.075542 1.566720 0.964502 1.214141 2.150877 -0.789284 0.195301 1.335039 -1.043261 -2.351251 -1.255119 -5.512527 2.468104 -1.559342 7.158228 0.871077 -0.972972 4.172074 -0.527131 0.414163 -0.297704 -45.811474 6.886510 2.840538 4.376483 -9.271535 -1.049038 -0.354535 -0.250177 6.277346 8.502016 2.134626 1.068009 -3.783714 0.000000 0.000000 -6.594060 16.782240 -1.252807 0.534264 -0.185206 -0.394793 39.190647 2.165632 13.309857 -12.820804 16.573530 -5.267783 0.296991 -0.133675 -4.807233 -15.666739 -2.357667 -3.487043 3.614025 0.000000 0.000000 -1.548173 -19.313856 -5.990166
3.188809 8.837171 -9.942592 -2.922956 6.901157 3.148089 0.205759 0.370371 0.182559 -5.898248 -2.417906 -26.682726 0.289767 7.108969 19.770914 -1.163999 -3.505866 3.817208 0.154899 0.535594 -3.123326 0.085793 -1.073062 1.654005 15.620877 3.922115 -0.182241 -0.806766 -5.159550 14.579388 -0.087673 1.652327 -2.689309 -0.083255 0.205264 1.063701 1.080482 1.578282 0.967022 1.222425 2.166532 -0.799750 0.193928 1.344591 -1.059056 -2.373820 -1.267614 -5.559360 2.484659 -1.574876 7.210336 0.874541 -0.982986 4.201843 -0.535532 0.413863 -0.300964 -46.197559 6.936674 2.855608 4.407974 -9.352049 -1.059043 -0.357921 -0.253475 6.305968 8.561917 2.137981 1.069880 -3.815384 0.000000 0.000000 -6.677850 16.878965 -1.297838 0.533560 -0.190378 -0.399479 39.482990 2.176877 13.405543 -12.940144 16.695206 -5.321153 0.298339 -0.135868 -4.855682 -15.866085 -2.409379 -3.571703 3.641449 0.000000 0.000000 -1.633046 -19.509611 -6.112937
3.227147 8.904173 -10.034416 -2.951957 6.952321 3.168007 0.202732 0.370932 0.181220 -5.949604 -2.439737 -26.901716 0.289795 7.159883 19.912182 -1.174843 -3.538396 3.843808 0.155509 0.536497 -3.159252 0.081360 -1.083766 1.664604 15.737134 3.946309 -0.189145 -0.814667 -5.203943 14.674994 -0.090134 1.653829 -2.750191 -0.085672 0.202072 1.052763 1.085417 1.589841 0.969535 1.230706 2.182184 -0.810222 0.192551 1.354140 -1.074859 -2.396396 -1.280113 -5.606202 2.501211 -1.590417 7.262434 0.878001 -0.993003 4.231606 -0.543941 0.413557 -0.304226 -46.583683 6.986824 2.870645 4.439456 -9.432575 -1.069051 -0.361308 -0.256775 6.334560 8.621802 2.141312 1.071740 -3.847057 0.000000 0.000000 -6.761686 16.975632 -1.342921 0.532848 -0.195555 -0.404167 39.775307 2.188110 13.501211 -13.059505 16.816862 -5.374537 0.299685 -0.138062 -4.904146 -16.065535 -2.461137 -3.656438 3.668872 0.000000 0.000000 -1.718009 -19.705418 -6.235799
3.265365 8.971087 -10.126584 -2.981068 7.003303 3.187738 0.199544 0.371407 0.179810 -6.001194 -2.461746 -27.120989 0.289762 7.210638 20.053024 -1.185741 -3.571132 3.870104 0.156067 0.537273 -3.195601 0.076748 -1.094535 1.675089 15.853019 3.970300 -0.196387 -0.822633 -5.248440 14.770301 -0.092666 1.654974 -2.811540 -0.088142 0.198742 1.041355 1.090242 1.601341 0.971861 1.238926 2.197753 -0.820838 0.191084 1.363635 -1.090863 -2.419134 -1.292729 -5.653270 2.517663 -1.606122 7.314297 0.881301 -1.003111 4.261192 -0.552548 0.413089 -0.307528 -46.970764 7.036638 2.884742 4.470696 -9.513425 -1.079139 -0.364721 -0.260138 6.362337 8.681238 2.143931 1.073281 -3.878794 0.000000 0.000000 -6.846911 17.070618 -1.389542 0.531909 -0.200896 -0.408915 40.066730 2.198979 13.596341 -13.179448 16.937986 -5.428266 0.300987 -0.140304 -4.953040 -16.267925 -2.514175 -3.743373 3.696236 0.000000 0.000000 -1.805746 -19.902809 -6.361443
3.303643 9.038120 -10.218295 -3.010005 7.054642 3.207825 0.196665 0.372030 0.178536 -6.052386 -2.483450 -27.339663 0.289834 7.261636 20.194515 -1.196578 -3.603638 3.896765 0.156687 0.538198 -3.231555 0.072343 -1.105229 1.685716 15.969393 3.994539 -0.203218 -0.830528 -5.292827 14.865938 -0.095120 1.656499 -2.872416 -0.090552 0.195570 1.030412 1.095181 1.612902 0.974381 1.247206 2.213405 -0.831308 0.189709 1.373178 -1.106659 -2.441706 -1.305225 -5.700106 2.534221 -1.621657 7.366405 0.884753 -1.013128 4.290963 -0.560946 0.412793 -0.310787 -47.356808 7.086817 2.899840 4.502199 -9.593929 -1.089142 -0.368105 -0.263433 6.390975 8.741149 2.147277 1.075147 -3.910465 0.000000 0.000000 -6.930679 17.167400 -1.434520 0.531219 -0.206054 -0.413599 40.359112 2.210239 13.692046 -13.298761 17.059687 -5.481618 0.302339 -0.142494 -5.001470 -16.467115 -2.565811 -3.827946 3.723662 0.000000 0.000000 -1.890512 -20.098503 -6.484117
3.341824 9.105136 -10.310077 -3.038983 7.105822 3.227781 0.193674 0.372605 0.177216 -6.103697 -2.505246 -27.558483 0.289891 7.312578 20.335852 -1.207433 -3.636175 3.923399 0.157302 0.539120 -3.267415 0.067954 -1.115917 1.696355 16.085793 4.018787 -0.210031 -0.838417 -5.337203 14.961645 -0.097557 1.658094 -2.933182 -0.092949 0.192430 1.019552 1.100145 1.624482 0.976958 1.255502 2.229081 -0.841736 0.188360 1.382734 -1.122410 -2.464230 -1.317685 -5.746881 2.550802 -1.637149 7.418575 0.888236 -1.023132 4.320775 -0.569298 0.412531 -0.314037 -47.742653 7.137068 2.915127 4.533752 -9.674363 -1.099127 -0.371482 -0.266713 6.419775 8.801149 2.150752 1.077077 -3.942121 0.000000 0.000000 -7.014155 17.264524 -1.479185 0.530574 -0.211176 -0.418271 40.651672 2.221586 13.787864 -13.417953 17.181499 -5.534894 0.303700 -0.144674 -5.049812 -16.665659 -2.617146 -3.912035 3.751102 0.000000 0.000000 -1.974612 -20.293818 -6.606110
3.380009 9.172156 -10.401837 -3.067960 7.157004 3.247741 0.190685 0.373182 0.175896 -6.155006 -2.527041 -27.777300 0.289949 7.363523 20.477198 -1.218286 -3.668709 3.950040 0.157918 0.540045 -3.303269 0.063566 -1.126604 1.706994 16.202194 4.043036 -0.216843 -0.846305 -5.381578 15.057354 -0.099994 1.659693 -2.993945 -0.095346 0.189292 1.008699 1.105111 1.636062 0.979535 1.263800 2.244757 -0.852163 0.187012 1.392290 -1.138159 -2.486752 -1.330145 -5.793656 2.567382 -1.652641 7.470746 0.891720 -1.033135 4.350587 -0.577648 0.412270 -0.317287 -48.128494 7.187319 2.930418 4.565307 -9.754796 -1.109111 -0.374860 -0.269993 6.448579 8.861152 2.154230 1.079008 -3.973776 0.000000 0.000000 -7.097624 17.361656 -1.523843 0.529930 -0.216297 -0.422942 40.944237 2.232935 13.883684 -13.537140 17.303314 -5.588168 0.305062 -0.146855 -5.098150 -16.864180 -2.668470 -3.996103 3.778542 0.000000 0.000000 -2.058678 -20.489113 -6.728067
3.418059 9.239013 -10.494231 -3.097093 7.207922 3.267472 0.187498 0.373643 0.174477 -6.206636 -2.549084 -27.996603 0.289899 7.414250 20.617960 -1.229211 -3.701514 3.976342 0.158477 0.540798 -3.339650 0.058938 -1.137379 1.717475 16.318104 4.067033 -0.224077 -0.854275 -5.426090 15.152678 -0.102522 1.660828 -3.055375 -0.097816 0.185964 0.997146 1.109890 1.647548 0.981819 1.272000 2.260299 -0.862821 0.185519 1.401761 -1.154244 -2.509575 -1.342820 -5.840874 2.583771 -1.668447 7.522466 0.894934 -1.043298 4.380058 -0.586384 0.411691 -0.320616 -48.516232 7.236905 2.943880 4.596380 -9.835897 -1.119261 -0.378293 -0.273401 6.475720 8.920238 2.156322 1.080281 -4.005567 0.000000 0.000000 -7.183973 17.455246 -1.571737 0.528818 -0.221760 -0.427738 41.234947 2.243531 13.978397 -13.657557 17.424006 -5.642195 0.306328 -0.149139 -5.147427 -17.069265 -2.722681 -4.085094 3.805851 0.000000 0.000000 -2.149123 -20.688049 -6.856532
